<svg xmlns="http://www.w3.org/2000/svg" viewBox="100 320 320 410">
<rect x="100" y="320" width="320" height="410" rx="44" fill="#f3dcb0"/>

  <defs>
    
  </defs>
  
  
  
  
  
  
  
  
  <g>
    <path class="cls-1" fill="none" stroke="#1f1d1c" stroke-width="6" stroke-linejoin="round" d="M436.37,521.95c-14.15-3.6-30.97.93-38.12,3.26-.5-16.74-2.46-31.65-2.46-31.65-3.21-7.16-30.31-19.75-56.5-26.42-67.19-17.11-127.78,5.4-156.84,20.45-33.27,17.24-32.35,23.93-24.99,71.09,7.36,47.16,31.49,101.88,89.13,116.56,57.64,14.68,110.69-17.54,126.28-34.91,2.56-2.85,4.92-6.96,7.11-11.77l-.04.2c15.39,3.46,28.26-1.75,42.76-12.72,23.64-17.89,31.52-33.55,36.28-52.25,4.76-18.7-7.81-38.09-22.6-41.86ZM409.83,594.39c-5.82,4.31-15.03,4.04-20.09,3.48,4.24-18.17,6.94-37.51,8.01-50.35,6.35-1.84,15.91-4.01,21.81-2.51,9.45,2.41,14.45,11.99,12.15,21.04-2.3,9.04-13.52,22.16-21.88,28.34Z"></path>
    <g>
      <path fill="#1f1d1c" d="M436.66,520.44c-12.72-3.16-26.57-.73-38.83,3.26.57.43,1.14.87,1.71,1.3-.22-7.12-.69-14.24-1.35-21.33-.31-3.39-.49-6.88-1.1-10.23-.51-2.78-3.74-5-5.85-6.54-4.24-3.08-8.96-5.51-13.69-7.75-26.08-12.35-54.94-19.1-83.78-19.67-25.72-.51-51.47,3.75-75.9,11.7-9.43,3.07-18.69,6.7-27.69,10.88-7.78,3.62-15.59,7.53-22.71,12.35-5.18,3.51-10.13,7.77-12.81,13.56-2.76,5.96-3.03,12.66-2.68,19.11.55,10.34,2.38,20.63,3.97,30.85,1.56,9.99,3.71,19.88,6.65,29.56,6.03,19.82,15.27,38.92,28.81,54.71,14.45,16.86,33.67,28.86,55.23,34.26,25.48,6.38,52.45,4.01,77.05-4.8,10.16-3.64,19.98-8.3,29.15-13.99,6.9-4.28,13.65-9.13,19.35-14.95,3.88-3.96,6.57-8.68,8.87-13.69-.82-.35-1.64-.69-2.47-1.04l-.04.2c-.13.69.19,1.49.94,1.66,5.59,1.23,11.29,1.45,16.93.43,5.69-1.03,11.11-3.29,16.14-6.13,5.83-3.29,11.22-7.35,16.37-11.61,4.69-3.88,9.14-8.08,13.13-12.68,6.47-7.46,11.48-15.94,14.87-25.22,1.66-4.53,3.23-9.32,3.94-14.11.81-5.49.31-11.14-1.37-16.42-3.41-10.67-11.69-20.75-22.85-23.69-1.68-.44-2.4,2.16-.72,2.6,9.35,2.46,16.57,10.54,20.06,19.3,1.93,4.85,2.84,10.08,2.49,15.3-.32,4.77-1.84,9.5-3.36,14-2.9,8.63-7.19,16.71-12.89,23.82-7.39,9.21-16.69,17.18-26.55,23.63-5.29,3.46-10.97,6.41-17.12,7.98-6.04,1.54-12.28,1.52-18.36.19.31.55.63,1.11.94,1.66l.04-.2c.27-1.39-1.79-2.52-2.47-1.04-2.3,5.02-4.98,9.69-8.9,13.61-2.51,2.5-5.22,4.81-8.03,6.97-7.53,5.79-15.79,10.65-24.34,14.76-21.92,10.52-46.52,15.96-70.85,14.01-23.21-1.86-45.54-10.58-62.97-26.15-15.3-13.67-26.3-31.55-33.75-50.54-7.55-19.26-11.1-39.48-13.86-59.89-1.04-7.7-2.16-15.76-1.14-23.52.73-5.53,3-10.47,6.91-14.47,5.31-5.42,12.27-9.15,18.91-12.67,7.72-4.09,15.67-7.74,23.81-10.94,21.77-8.56,44.79-14.16,68.13-16.01,28.67-2.28,57.32,1.45,84.47,10.94,6.34,2.21,12.59,4.69,18.67,7.55,4.65,2.18,9.27,4.56,13.48,7.51,1.43,1,2.82,2.09,4,3.37.38.41.67.85.99,1.31.52.72-.21.01.1-.12,0,0,.04.3.04.31.28,3.73.85,7.46,1.18,11.19.6,6.7,1.03,13.41,1.24,20.13.03.84.85,1.58,1.71,1.3,11.8-3.84,25.15-6.3,37.4-3.26,1.69.42,2.41-2.18.72-2.6Z"></path>
      <path fill="#1f1d1c" d="M409.08,593.02c-5.49,3.94-12.95,3.99-19.41,3.29.43.57.87,1.14,1.3,1.71,3.87-16.65,6.62-33.67,8.06-50.71-.33.43-.66.87-.99,1.3,5.6-1.61,11.5-3.08,17.37-2.95,5.23.11,10.11,2.61,12.94,7.08,2.62,4.15,3.16,9.27,1.65,13.92-1.6,4.94-4.77,9.45-7.98,13.47-3.78,4.74-8.07,9.26-12.94,12.89-1.38,1.03-.03,3.37,1.36,2.33,4.73-3.53,8.93-7.77,12.68-12.32,3.66-4.44,7.14-9.31,9.16-14.74,3.93-10.59-2.25-23.25-13.83-25.06-6.98-1.09-14.46.87-21.13,2.79-.61.18-.94.7-.99,1.3-1.42,16.8-4.15,33.57-7.96,49.99-.21.93.42,1.61,1.3,1.71,6.9.75,14.92.54,20.77-3.66,1.4-1,.05-3.35-1.36-2.33Z"></path>
    </g>
    <path class="cls-4" fill="#7a3a14" d="M349.77,478.96c-11.4-2.9-13.06,4.88-22.65,2.44-9.59-2.44-1.82-27.81-17.64-31.84-15.82-4.03-20.31,18.02-27.43,16.21-7.12-1.81-8.23-8.37-17.4-10.7-9.18-2.34-12.12,4.64-16.48,12.58-4.35,7.93-11.27,13.9-19.35,11.85-8.08-2.06-12.44-10.17-27.37-13.97-14.93-3.8-13.1,16.5-16.27,28.97-2.31,9.07-12.29,13.77-17.57,15.67,1.15,4.53,8.58,10.74,34.13,17.25,50.14,12.77,98.37,8.09,127.42-2.02,26.07-9.07,46.65-15.48,52.5-24.12-17.93-2-20.63-19.44-31.89-22.3Z"></path>
    <path fill="#1f1d1c" d="M170.51,502.04c-3.25,1.94-5.28,5.82-3.67,9.47,1.89,4.29,6.85,6.92,10.84,8.84,10.1,4.86,21.29,7.65,32.19,10.01,24.78,5.37,50.45,7.08,75.71,4.79,10.38-.94,20.72-2.54,30.84-5.05,10.7-2.65,21.09-6.58,31.47-10.25,9.25-3.27,18.94-6.49,27.31-11.71,4.58-2.86,12.26-9.14,7.08-14.87-.82-.9-1.83-1.71-2.89-2.32-1.16-.66-2.21,1.13-1.05,1.79,1,.57,1.94,1.33,2.67,2.22,1.12,1.36,1.17,2.73.45,4.28-1.18,2.56-3.48,4.5-5.75,6.07-7.37,5.11-16.22,8.15-24.59,11.17-5.74,2.08-11.51,4.05-17.27,6.04-4.55,1.57-9.08,3.16-13.72,4.45-9.29,2.58-18.82,4.32-28.39,5.45-23.56,2.77-47.59,1.98-70.96-2.06-11.89-2.06-23.85-4.78-35.19-8.95-5.37-1.97-11.74-4.36-15.61-8.82-.84-.97-1.53-2.29-1.65-3.2-.13-1.02.06-1.87.41-2.55.47-.93.71-1.22,1.42-1.92.25-.24.5-.46.77-.68.22-.18-.17.11.14-.11.08-.06.17-.11.25-.17.07-.05.15-.1.22-.14,1.15-.68.1-2.48-1.05-1.79h0Z"></path>
    <path fill="#1f1d1c" d="M170.37,569.1c7.13,27.74,17.98,60.82,43.06,77.49,2.99,1.99,5.77-2.82,2.8-4.8-23.73-15.78-33.77-47.99-40.5-74.17-.89-3.46-6.25-1.99-5.36,1.48h0Z"></path>
    <path fill="#1f1d1c" d="M162.78,535.42c.68,5.57,1.65,11.12,2.71,16.63.67,3.51,6.03,2.02,5.36-1.48-.96-5.02-1.89-10.08-2.51-15.15-.43-3.5-5.99-3.55-5.56,0h0Z"></path>
    <path class="cls-3" fill="#1f1d1c" d="M176.75,510.27c1.48-.41,2.91-1.2,4.19-2.04,3.06-2.01,5.52-4.86,7.11-8.15,1.28-2.63,2-5.48,2.34-8.38.06-.53-.77-.53-.83,0-.53,4.53-2.14,8.98-5.18,12.44-1.79,2.04-4.01,3.71-6.49,4.82-.38.17-.88.38-1.36.51-.52.14-.3.95.22.8h0Z"></path>
    <path class="cls-3" fill="#1f1d1c" d="M192.65,475.19c.07-.29.17-.57.28-.85.02-.06.05-.13.08-.19.01-.03.03-.07.04-.1.04-.11-.02.05.03-.06.07-.15.14-.31.21-.46.17-.35.36-.7.58-1.03,1.01-1.58,2.58-2.83,4.53-2.99,1.64-.14,3.26.39,4.71,1.11.48.24.9-.48.42-.72-2.48-1.23-5.46-1.86-7.95-.31-1.57.98-2.65,2.57-3.34,4.25-.15.37-.29.75-.39,1.13-.13.52.67.74.8.22h0Z"></path>
    <path class="cls-3" fill="#1f1d1c" d="M239.32,483.04c2.52-1.18,4.84-3.06,6.79-5.02,1.92-1.94,3.56-4.17,4.76-6.62,1.42-2.9,2.83-5.72,4.95-8.19,1.98-2.31,4.62-4.58,7.79-4.79.53-.04.54-.87,0-.83-2.68.18-5.02,1.67-6.92,3.49-2.28,2.18-4.06,4.88-5.48,7.68-.71,1.41-1.32,2.86-2.15,4.22-.72,1.16-1.53,2.26-2.44,3.29-1.48,1.69-3.18,3.19-5.03,4.47-.85.59-1.74,1.16-2.68,1.6-.49.23-.06.95.42.72h0Z"></path>
    <path fill="#1f1d1c" d="M168.39,511.3c4.95-1.82,9.84-4.41,13.5-8.28,1.97-2.09,3.54-4.56,4.39-7.31.75-2.43,1.11-5.01,1.49-7.53.73-4.92,1.17-9.98,2.74-14.72,1.3-3.92,3.73-7.31,8.25-7.15,3.14.11,6.39,1.38,9.26,2.58,2.87,1.2,5.58,2.74,8.16,4.47,3.83,2.56,7.44,5.73,11.91,7.12,6.2,1.92,12.19-.79,16.46-5.33,2.3-2.45,4.04-5.27,5.63-8.21,1.44-2.67,2.83-5.5,4.84-7.8,1.81-2.07,4.08-3.35,6.88-3.29,3.17.08,6.38,1.42,8.93,3.25,2.14,1.54,3.88,3.55,5.96,5.17,1.73,1.35,4.04,2.77,6.31,2.84,3.06.09,5.35-2.91,7.06-5.05,2.53-3.17,4.92-6.62,8.22-9.05,3.82-2.82,8.67-3.51,13.08-1.6,4.02,1.74,6.13,5.61,7.3,9.64,1.19,4.13,1.55,8.43,2.42,12.62.64,3.11,1.66,6.92,4.75,8.47,4.31,2.16,8.95.49,13.05-1.18,4.64-1.89,10.07-2.01,14.4.79,3.63,2.34,6.12,6.18,8.82,9.46,3.08,3.74,6.59,7.12,11.09,9.07,2.62,1.13,5.37,1.74,8.2,2.01,1.33.13,1.32-1.95,0-2.08-5.65-.53-10.59-2.9-14.6-6.88-3.17-3.15-5.61-6.94-8.69-10.17-3.41-3.58-7.55-5.56-12.55-5.68-2.42-.06-4.74.49-6.98,1.38-2.05.82-4.06,1.84-6.28,2.11-1.94.24-4.59.15-6.2-1.11-1.2-.94-1.83-2.46-2.28-3.87-1.25-3.92-1.52-8.09-2.33-12.11-.83-4.09-2.11-8.36-5.07-11.45-3.22-3.37-8.29-4.76-12.84-3.99-4.24.72-7.69,3.49-10.49,6.6-2.53,2.82-4.53,6.25-7.39,8.75-.78.68-1.76,1.36-2.85,1.24-2.49-.27-4.76-2.18-6.53-3.8-4.26-3.91-9.06-7.7-15.21-7.46-5.9.24-9.13,5.37-11.7,10.03-3.16,5.73-6.61,12.28-13.23,14.57-5.39,1.87-10.19-.63-14.53-3.66-4.71-3.29-9.34-6.45-14.77-8.47-4.56-1.69-10.28-3.49-14.46,0-3.27,2.74-4.42,7.42-5.21,11.42-.98,4.99-1.36,10.08-2.42,15.06-.63,2.98-1.73,5.66-3.73,8-1.93,2.27-4.33,4.08-6.89,5.57-2.04,1.19-4.19,2.17-6.41,2.99-1.24.46-.71,2.47.55,2h0Z"></path>
    <g>
      <path class="cls-4" fill="#7a3a14" d="M311.27,437.46c1.57,1.57,4.12-5.49,13.87-17.08,9.96-11.84,20.83-17.05,20.83-25.02s-10.47-8.77-14.06-5.23c-13.14,12.95-21.99,45.98-20.64,47.33Z"></path>
      <path fill="#1f1d1c" d="M310.65,438.05c1.88,1.74,3.91-1.93,4.75-3.13,3.44-4.99,6.87-9.95,10.82-14.55,4.37-5.09,9.52-9.33,14.3-14,3.08-3.01,6.42-6.72,6.25-11.33-.16-4.18-3.32-7.01-7.32-7.6-1.83-.27-3.76-.14-5.5.5-1.89.7-3.18,2.06-4.48,3.56-6.53,7.55-10.74,17.14-14.15,26.43-1.63,4.45-3.09,8.98-4.18,13.6-.33,1.42-.65,2.85-.81,4.3-.08.73-.2,1.62.32,2.22.7.82,1.87-.37,1.18-1.18.23.26.09.25.11-.1.02-.36.04-.71.08-1.07.14-1.11.38-2.22.63-3.31.8-3.49,1.84-6.94,2.98-10.33,2.92-8.69,6.56-17.36,11.69-24.99,1.96-2.91,4.39-6.89,8-7.81,3.23-.82,7.57.01,9.17,3.25,1.89,3.83-.67,7.88-3.19,10.66-3.69,4.08-8.07,7.5-11.95,11.39-4.9,4.9-9.15,10.41-13.07,16.11-1.11,1.61-2.16,3.27-3.33,4.84-.32.42-.65.85-1.05,1.2-.11.1-.22.14-.25.15.05-.02.24.07.18.02-.79-.73-1.97.45-1.18,1.18Z"></path>
    </g>
    <g>
      <path class="cls-4" fill="#7a3a14" d="M190.1,450.94c-1.78,2.54-6.97-6.54-23.11-20.1-16.49-13.85-32.64-18.41-34.55-29.34-1.91-10.93,12.26-14.53,18.04-10.53,21.12,14.61,41.15,57.79,39.62,59.97Z"></path>
      <path fill="#1f1d1c" d="M189.15,450.33c.07-.1,0-.1.17-.14.2-.04.08-.08,0-.01.12-.11.17.11-.08-.05.21.14-.3-.18-.4-.24-.26-.16-.41-.29-.64-.48-1.57-1.31-2.96-2.86-4.38-4.33-5.47-5.66-11.12-11.16-17.23-16.13-6.68-5.44-14.05-9.83-21.22-14.57-4.65-3.08-10.36-6.82-11.65-12.65-1.25-5.59,2.73-9.72,7.93-10.88,2.23-.5,4.72-.51,6.87.34,2.34.92,4.43,2.98,6.27,4.64,9.6,8.66,16.99,19.8,23.38,30.95,2.75,4.8,5.33,9.7,7.62,14.74,1.25,2.74,2.86,5.8,3.28,8.82-.05-.34-.02.2,0,.21.05.03-.02-.07.08-.21-.79,1.27,1.22,2.44,2,1.17.5-.81.15-1.98-.08-2.82-.43-1.6-1.06-3.15-1.69-4.68-2.08-5.05-4.54-9.95-7.16-14.74-6.65-12.18-14.47-24.36-24.59-33.96-2.15-2.03-4.49-4.24-7.08-5.7-2.15-1.21-4.78-1.55-7.2-1.33-5.36.47-11.01,3.64-12.02,9.33-1.11,6.32,3.15,11.51,7.79,15.16,6.78,5.32,14.49,9.37,21.45,14.46,7.39,5.4,14.08,11.73,20.44,18.29,1.7,1.75,3.35,3.59,5.18,5.22.89.79,2.05,1.86,3.34,1.77.71-.05,1.21-.44,1.62-.99.89-1.2-1.12-2.36-2-1.17Z"></path>
    </g>
    <g>
      <path class="cls-4" fill="#7a3a14" d="M190.18,339.95c24.8-24.8,58.17,45.59,57.75,82.12,0,.79-.96,1.5-1.33.81-22.94-42.6-27.29-37.58-42-50.78-15.26-13.69-22.62-23.96-14.42-32.16Z"></path>
      <path fill="#1f1d1c" d="M191.07,340.91c3.69-3.65,8.46-5.73,13.65-4.41,5.63,1.42,10.26,5.66,14.02,9.89,5.12,5.77,9.18,12.45,12.69,19.29,3.93,7.66,7.15,15.68,9.73,23.9,2.43,7.74,4.34,15.71,5.22,23.78.2,1.79.34,3.59.42,5.38.04.85.06,1.71.06,2.56,0,.11-.06.6,0,.66.09,0,.19,0,.28,0,.42.08.42-.08.02-.48-.25-.8-.88-1.61-1.28-2.35-2.73-4.98-5.54-9.92-8.52-14.76-3.69-5.98-7.64-11.91-12.46-17.06-2.98-3.18-6.37-5.86-9.89-8.42-4.74-3.43-9.18-7.05-13.43-11.09-3.95-3.76-7.93-7.74-10.82-12.39-1.84-2.97-3.42-6.59-2.41-10.13.49-1.7,1.51-3.13,2.74-4.37,1.05-1.07-.59-2.71-1.64-1.64-2.64,2.7-4.13,6.11-3.61,9.91.59,4.37,3.24,8.24,5.94,11.6,5.38,6.7,11.97,12.66,18.86,17.79,3.52,2.62,7.16,5.07,10.35,8.1,4.8,4.54,8.68,9.98,12.25,15.51,3.02,4.68,5.84,9.5,8.56,14.36.79,1.4,1.56,2.81,2.33,4.22.61,1.12,1.24,3.39,2.67,3.67,2.5.48,2.39-2.78,2.36-4.33-.18-8.11-1.68-16.21-3.72-24.04-2.31-8.86-5.42-17.51-9.23-25.83-3.51-7.66-7.64-15.12-12.79-21.8-6.83-8.86-18.72-19.62-30.33-12.12-1.32.85-2.53,1.87-3.64,2.97-1.06,1.05.58,2.69,1.64,1.64Z"></path>
    </g>
    <path class="cls-3" fill="#1f1d1c" d="M137.34,404.24c-.02-.09-.03-.19-.04-.29s.01.12,0,.02c0-.03,0-.05-.01-.08,0-.07-.02-.13-.02-.2-.02-.15-.03-.29-.04-.44-.06-.85-.06-1.72.04-2.57,0-.06.01-.12.02-.18.01-.12,0,0,.01-.11.02-.13.04-.26.06-.39.05-.26.1-.52.17-.78s.15-.53.24-.78c.11-.3.17-.44.29-.71.51-1.05,1.23-1.92,2.2-2.54,1.47-.94,3.27-1.18,5-1.12.54.02.54-.82,0-.83-1.7-.06-3.45.17-4.97.97-1.14.6-2.07,1.53-2.71,2.65-1.04,1.83-1.32,4.04-1.21,6.12.03.49.07.99.16,1.48.1.53.9.3.8-.22h0Z"></path>
    <path class="cls-3" fill="#1f1d1c" d="M191.79,344.9c1.13-1.19,2.54-2.16,3.96-2.95,2.9-1.6,6.28-2.31,9.51-1.37,2.57.75,4.74,2.39,6.55,4.32.37.39.96-.2.59-.59-3.03-3.22-7.08-5.46-11.61-4.91-2.99.36-5.76,1.75-8.11,3.6-.52.41-1.03.84-1.49,1.31-.37.39.22.98.59.59h0Z"></path>
    <path class="cls-3" fill="#1f1d1c" d="M340.17,393.21c-.65-1.3-2.1-2.2-3.55-2.19-1.66,0-3.16,1-4.37,2.05-2.56,2.22-4.48,5.2-6.19,8.09-3.75,6.34-6.65,13.19-9.35,20.04-.2.5.61.72.8.22,2.43-6.16,5.04-12.29,8.26-18.08,1.75-3.15,3.68-6.36,6.25-8.92,1.14-1.13,2.67-2.36,4.18-2.54.57-.07.9-.03,1.42.14.25.08.76.38.93.53.15.13.29.26.42.41.17.19.16.18.24.3s.17.24.23.37c.24.48.96.06.72-.42h0Z"></path>
  </g>
  
</svg>